<svg width="16" height="16" xmlns="http://www.w3.org/2000/svg" fill="currentColor" class="bi bi-twitter">
 <g>
  <title>Layer 1</title>
  <path transform="rotate(3 8 8.49966)" fill="#1da1f2" d="m5.026,15c6.038,0 9.341,-5.003 9.341,-9.334c0,-0.14 0,-0.282 -0.006,-0.422a6.685,6.685 0 0 0 1.639,-1.702a6.658,6.658 0 0 1 -1.889,0.518a3.301,3.301 0 0 0 1.447,-1.817a6.533,6.533 0 0 1 -2.087,0.793a3.286,3.286 0 0 0 -5.596,2.994a9.325,9.325 0 0 1 -6.767,-3.429a3.289,3.289 0 0 0 1.018,4.382a3.323,3.323 0 0 1 -1.486,-0.408l0,0.045a3.288,3.288 0 0 0 2.632,3.218a3.203,3.203 0 0 1 -0.865,0.115a3.23,3.23 0 0 1 -0.614,-0.057a3.283,3.283 0 0 0 3.067,2.277a6.588,6.588 0 0 1 -4.08,1.407a6.32,6.32 0 0 1 -0.78,-0.045a9.344,9.344 0 0 0 5.026,1.465z" id="svg_1"/>
 </g>

</svg>